<svg width="24" height="24" viewBox="0 0 24 24" fill="none" xmlns="http://www.w3.org/2000/svg">
<rect width="24" height="24" fill="#1E1E1E"/>
<g id="Real Estate Law Firm" clip-path="url(#clip0_0_1)">
<rect width="1440" height="10376" transform="translate(-319 -3702)" fill="white"/>
<g id="Properties">
<g id="Group 18540">
<g id="Group 18535">
<g id="Group 18534">
<g id="Group 18533">
<g id="noun-vectorize-541259 1">
<g id="Group">
<path id="Vector" fill-rule="evenodd" clip-rule="evenodd" d="M6.25156 7.52619C6.95563 7.52619 7.52643 6.95538 7.52643 6.25132C7.52643 5.54726 6.95563 4.97656 6.25156 4.97656C5.5475 4.97656 4.97681 5.54726 4.97681 6.25132C4.97681 6.95538 5.5475 7.52619 6.25156 7.52619ZM6.25156 6.88881C6.60361 6.88881 6.88905 6.60336 6.88905 6.25132C6.88905 5.89928 6.60361 5.61394 6.25156 5.61394C5.89952 5.61394 5.61419 5.89928 5.61419 6.25132C5.61419 6.60336 5.89952 6.88881 6.25156 6.88881Z" fill="#FD6038"/>
<path id="Vector_2" fill-rule="evenodd" clip-rule="evenodd" d="M7.20752 5.93262H16.7687V6.57H7.20752V5.93262Z" fill="#FD6038"/>
<path id="Vector_3" fill-rule="evenodd" clip-rule="evenodd" d="M17.725 7.52619C18.429 7.52619 18.9998 6.95538 18.9998 6.25132C18.9998 5.54726 18.429 4.97656 17.725 4.97656C17.0209 4.97656 16.4502 5.54726 16.4502 6.25132C16.4502 6.95538 17.0209 7.52619 17.725 7.52619ZM17.725 6.88881C18.077 6.88881 18.3624 6.60336 18.3624 6.25132C18.3624 5.89928 18.077 5.61394 17.725 5.61394C17.3729 5.61394 17.0876 5.89928 17.0876 6.25132C17.0876 6.60336 17.3729 6.88881 17.725 6.88881Z" fill="#FD6038"/>
<path id="Vector_4" fill-rule="evenodd" clip-rule="evenodd" d="M6.25156 18.9998C6.95563 18.9998 7.52643 18.429 7.52643 17.725C7.52643 17.0209 6.95563 16.4502 6.25156 16.4502C5.5475 16.4502 4.97681 17.0209 4.97681 17.725C4.97681 18.429 5.5475 18.9998 6.25156 18.9998ZM6.25156 18.3624C6.60361 18.3624 6.88905 18.077 6.88905 17.725C6.88905 17.3729 6.60361 17.0876 6.25156 17.0876C5.89952 17.0876 5.61419 17.3729 5.61419 17.725C5.61419 18.077 5.89952 18.3624 6.25156 18.3624Z" fill="#FD6038"/>
<path id="Vector_5" fill-rule="evenodd" clip-rule="evenodd" d="M7.20752 17.4062H16.7687V18.0436H7.20752V17.4062Z" fill="#FD6038"/>
<path id="Vector_6" fill-rule="evenodd" clip-rule="evenodd" d="M17.725 18.9998C18.429 18.9998 18.9998 18.429 18.9998 17.725C18.9998 17.0209 18.429 16.4502 17.725 16.4502C17.0209 16.4502 16.4502 17.0209 16.4502 17.725C16.4502 18.429 17.0209 18.9998 17.725 18.9998ZM17.725 18.3624C18.077 18.3624 18.3624 18.077 18.3624 17.725C18.3624 17.3729 18.077 17.0876 17.725 17.0876C17.3729 17.0876 17.0876 17.3729 17.0876 17.725C17.0876 18.077 17.3729 18.3624 17.725 18.3624Z" fill="#FD6038"/>
<path id="Vector_7" fill-rule="evenodd" clip-rule="evenodd" d="M5.93311 7.20703H6.57048V16.7683H5.93311V7.20703Z" fill="#FD6038"/>
<path id="Vector_8" fill-rule="evenodd" clip-rule="evenodd" d="M17.4065 7.20703H18.0439V16.7683H17.4065V7.20703Z" fill="#FD6038"/>
</g>
</g>
</g>
</g>
</g>
</g>
</g>
</g>
<defs>
<clipPath id="clip0_0_1">
<rect width="1440" height="10376" fill="white" transform="translate(-319 -3702)"/>
</clipPath>
</defs>
</svg>
