<svg width="84" height="67" viewBox="0 0 84 67" fill="none" xmlns="http://www.w3.org/2000/svg">
<path d="M6.90234 51.2461C5.71484 51.2461 4.67188 51.0469 3.77344 50.6484C2.88281 50.2422 2.17969 49.625 1.66406 48.7969C1.15625 47.9688 0.878906 46.918 0.832031 45.6445L0.855469 45.5742H4.06641C4.12891 46.6914 4.37891 47.4727 4.81641 47.918C5.25391 48.3555 5.83594 48.5742 6.5625 48.5742C7.03125 48.5742 7.44141 48.4727 7.79297 48.2695C8.15234 48.0664 8.43359 47.7656 8.63672 47.3672C8.84766 46.9609 8.95312 46.4648 8.95312 45.8789V36.3516L6.65625 36V33.9375H14.1914V36L12.3633 36.3516V45.8789C12.3633 46.9727 12.1523 47.9219 11.7305 48.7266C11.3086 49.5312 10.6914 50.1523 9.87891 50.5898C9.06641 51.0273 8.07422 51.2461 6.90234 51.2461ZM20.625 51.2461C19.2891 51.2461 18.2383 50.8242 17.4727 49.9805C16.7148 49.1289 16.3359 47.8086 16.3359 46.0195V40.7344L14.9414 40.3828V38.3203H16.3359H19.7578V46.043C19.7578 46.9492 19.9141 47.6016 20.2266 48C20.5469 48.3906 21.0273 48.5859 21.668 48.5859C22.1758 48.5859 22.625 48.4883 23.0156 48.293C23.4062 48.0898 23.7266 47.8047 23.9766 47.4375V40.7344L22.4648 40.3828V38.3203H23.9766H27.3984V48.5977L28.9219 48.9492V51H24.3984L24.1641 49.3945C23.7656 49.9883 23.2656 50.4453 22.6641 50.7656C22.0625 51.0859 21.3828 51.2461 20.625 51.2461ZM35.6367 51.2461C34.6914 51.2461 33.8086 51.1562 32.9883 50.9766C32.1758 50.7969 31.3945 50.5391 30.6445 50.2031L30.6094 46.6172H32.9883L33.4453 48.4453C33.7109 48.5781 34 48.6836 34.3125 48.7617C34.6328 48.8398 34.9961 48.8789 35.4023 48.8789C36.168 48.8789 36.707 48.7539 37.0195 48.5039C37.332 48.2539 37.4883 47.9414 37.4883 47.5664C37.4883 47.2148 37.3203 46.9062 36.9844 46.6406C36.6562 46.3672 35.9961 46.1289 35.0039 45.9258C33.5039 45.6133 32.3984 45.1289 31.6875 44.4727C30.9766 43.8164 30.6211 42.9766 30.6211 41.9531C30.6211 41.25 30.7969 40.6094 31.1484 40.0312C31.5078 39.4531 32.0508 38.9883 32.7773 38.6367C33.5117 38.2852 34.4492 38.1094 35.5898 38.1094C36.543 38.1094 37.4141 38.2031 38.2031 38.3906C39 38.5703 39.668 38.8086 40.207 39.1055L40.2422 42.5742H37.875L37.5117 40.9102C37.3008 40.7539 37.0508 40.6367 36.7617 40.5586C36.4805 40.4805 36.1602 40.4414 35.8008 40.4414C35.1992 40.4414 34.7383 40.5625 34.418 40.8047C34.0977 41.0469 33.9375 41.3594 33.9375 41.7422C33.9375 41.9609 33.9922 42.1641 34.1016 42.3516C34.2188 42.5391 34.4453 42.7148 34.7812 42.8789C35.1172 43.043 35.6055 43.1992 36.2461 43.3477C37.8164 43.707 38.9609 44.1875 39.6797 44.7891C40.3984 45.3828 40.7578 46.2188 40.7578 47.2969C40.7578 48.4766 40.3281 49.4297 39.4688 50.1562C38.6172 50.8828 37.3398 51.2461 35.6367 51.2461ZM47.2969 51.2461C46.1172 51.2461 45.207 50.9219 44.5664 50.2734C43.9336 49.625 43.6172 48.5977 43.6172 47.1914V40.7227H41.8711V38.3203H43.6172V35.2148H47.0273V38.3203H49.3594V40.7227H47.0273V47.1797C47.0273 47.6719 47.1289 48.0234 47.332 48.2344C47.543 48.4453 47.8281 48.5508 48.1875 48.5508C48.375 48.5508 48.5781 48.5391 48.7969 48.5156C49.0156 48.4844 49.2031 48.4531 49.3594 48.4219L49.6523 50.8945C49.3008 50.9961 48.918 51.0781 48.5039 51.1406C48.0977 51.2109 47.6953 51.2461 47.2969 51.2461ZM51.1406 51V48.9492L52.793 48.5977V40.7344L50.9648 40.3828V38.3203H56.2148V48.5977L57.8555 48.9492V51H51.1406ZM52.6758 35.6367V32.7188H56.2148V35.6367H52.6758ZM64.9688 51.2461C63.75 51.2461 62.6953 50.9727 61.8047 50.4258C60.9219 49.8789 60.2422 49.125 59.7656 48.1641C59.2891 47.1953 59.0508 46.0898 59.0508 44.8477V44.4961C59.0508 43.2461 59.293 42.1406 59.7773 41.1797C60.2617 40.2188 60.9453 39.4648 61.8281 38.918C62.7109 38.3633 63.75 38.0859 64.9453 38.0859C66.0859 38.0859 67.0664 38.2656 67.8867 38.625C68.7148 38.9766 69.3867 39.3867 69.9023 39.8555L69.8789 43.4883H67.3008L66.8438 41.2266C66.6562 41.0391 66.418 40.8867 66.1289 40.7695C65.8398 40.6523 65.5469 40.5938 65.25 40.5938C64.625 40.5938 64.1055 40.75 63.6914 41.0625C63.2852 41.375 62.9805 41.8203 62.7773 42.3984C62.5742 42.9766 62.4727 43.6758 62.4727 44.4961V44.8477C62.4727 45.7148 62.5859 46.4297 62.8125 46.9922C63.0391 47.5469 63.3398 47.957 63.7148 48.2227C64.0977 48.4883 64.5234 48.6211 64.9922 48.6211C65.5938 48.6211 66.0742 48.4648 66.4336 48.1523C66.8008 47.832 67.0547 47.3828 67.1953 46.8047H70.1133L70.1484 46.875C70.0156 47.7734 69.75 48.5508 69.3516 49.207C68.9609 49.8633 68.4062 50.3672 67.6875 50.7188C66.9766 51.0703 66.0703 51.2461 64.9688 51.2461ZM77.7539 51.2461C76.543 51.2461 75.4844 50.9805 74.5781 50.4492C73.6719 49.9102 72.9688 49.1719 72.4688 48.2344C71.9766 47.2969 71.7305 46.2266 71.7305 45.0234V44.5547C71.7305 43.2969 71.9648 42.1836 72.4336 41.2148C72.9023 40.2383 73.5625 39.4727 74.4141 38.918C75.2734 38.3555 76.2852 38.0781 77.4492 38.0859C78.5977 38.0859 79.5625 38.3125 80.3438 38.7656C81.125 39.2188 81.7188 39.8711 82.125 40.7227C82.5312 41.5742 82.7344 42.6055 82.7344 43.8164V45.6797H75.2812L75.2578 45.75C75.3047 46.3047 75.4414 46.8008 75.668 47.2383C75.9023 47.668 76.2305 48.0078 76.6523 48.2578C77.0742 48.5 77.5859 48.6211 78.1875 48.6211C78.8125 48.6211 79.3945 48.543 79.9336 48.3867C80.4805 48.2227 81.0117 47.9844 81.5273 47.6719L82.4531 49.7812C81.9297 50.2031 81.2695 50.5547 80.4727 50.8359C79.6836 51.1094 78.7773 51.2461 77.7539 51.2461ZM75.3047 43.418H79.5352V43.1133C79.5352 42.5977 79.4648 42.1562 79.3242 41.7891C79.1914 41.4141 78.9727 41.125 78.668 40.9219C78.3711 40.7188 77.9844 40.6172 77.5078 40.6172C77.0547 40.6172 76.6719 40.7383 76.3594 40.9805C76.0469 41.2148 75.8008 41.5391 75.6211 41.9531C75.4492 42.3672 75.332 42.8359 75.2695 43.3594L75.3047 43.418ZM10.3018 65V64.1387L11.416 63.9473V56.1064L10.3018 55.915V55.0469H11.416H12.7627H13.877V55.915L12.7627 56.1064V63.9678H16.2832L16.4404 62.3955H17.4727V65H10.3018ZM21.0547 65.1436C20.2845 65.1436 19.6989 64.9567 19.2979 64.583C18.8968 64.2048 18.6963 63.6738 18.6963 62.9902C18.6963 62.5208 18.8239 62.113 19.0791 61.7666C19.3389 61.4157 19.7126 61.1445 20.2002 60.9531C20.6878 60.7572 21.2712 60.6592 21.9502 60.6592H23.2695V59.9346C23.2695 59.488 23.1328 59.1416 22.8594 58.8955C22.5905 58.6494 22.21 58.5264 21.7178 58.5264C21.4079 58.5264 21.139 58.5651 20.9111 58.6426C20.6833 58.7155 20.4759 58.818 20.2891 58.9502L20.1455 59.9824H19.1064V58.2871C19.4391 58.0182 19.8265 57.8154 20.2686 57.6787C20.7106 57.5374 21.2005 57.4668 21.7383 57.4668C22.6361 57.4668 23.3402 57.681 23.8506 58.1094C24.361 58.5378 24.6162 59.1507 24.6162 59.9482V63.5098C24.6162 63.6055 24.6162 63.6989 24.6162 63.79C24.6208 63.8812 24.6276 63.9723 24.6367 64.0635L25.3545 64.1387V65H23.4199C23.3789 64.7995 23.347 64.6195 23.3242 64.46C23.3014 64.3005 23.2855 64.141 23.2764 63.9814C23.0166 64.3141 22.6908 64.5921 22.2988 64.8154C21.9115 65.0342 21.4967 65.1436 21.0547 65.1436ZM21.2529 64.0156C21.6995 64.0156 22.1074 63.9085 22.4766 63.6943C22.8457 63.4801 23.11 63.2227 23.2695 62.9219V61.582H21.9023C21.2826 61.582 20.8177 61.7301 20.5078 62.0264C20.1979 62.3226 20.043 62.653 20.043 63.0176C20.043 63.3411 20.1432 63.5895 20.3438 63.7627C20.5443 63.9313 20.8473 64.0156 21.2529 64.0156ZM29.0254 65L27.0771 58.5674L26.25 58.4717V57.6035H29.3057V58.4717L28.3965 58.6221L29.415 62.3066L29.6475 63.1816H29.6885L29.9893 62.3066L31.5957 57.6035H32.7305L34.2617 62.293L34.5898 63.332H34.6309L34.9521 62.293L35.9844 58.6152L35.0547 58.4717V57.6035H38.042V58.4717L37.2217 58.5879L35.3076 65H34.0293L32.5322 60.5566L32.1768 59.3672L32.1357 59.374L31.7871 60.5566L30.1807 65H29.0254ZM42.4033 65V64.1387L43.5176 63.9473V56.1064L42.4033 55.915V55.0469H49.8887V57.4395H48.8086L48.6582 56.0928H44.8643V59.5381H48.5078V60.5977H44.8643V63.9473L45.9785 64.1387V65H42.4033ZM50.8936 65V64.1387L52.0078 63.9473V58.6631L50.8936 58.4717V57.6035H53.3545V63.9473L54.4688 64.1387V65H50.8936ZM51.9395 55.7783V54.3359H53.3545V55.7783H51.9395ZM55.3848 65V64.1387L56.499 63.9473V58.6631L55.3848 58.4717V57.6035H57.7021L57.8184 58.5469L57.832 58.6768C58.0417 58.2985 58.2992 58.0023 58.6045 57.7881C58.9144 57.5739 59.2676 57.4668 59.6641 57.4668C59.8053 57.4668 59.9489 57.4805 60.0947 57.5078C60.2451 57.5306 60.3522 57.5534 60.416 57.5762L60.2383 58.8271L59.3018 58.7725C58.9463 58.7497 58.6478 58.8317 58.4062 59.0186C58.1647 59.2008 57.9779 59.4469 57.8457 59.7568V63.9473L58.96 64.1387V65H55.3848ZM61.2363 65V64.1387L62.3506 63.9473V58.6631L61.2363 58.4717V57.6035H63.5605L63.6494 58.5674C63.8864 58.2165 64.1917 57.9453 64.5654 57.7539C64.9391 57.5625 65.3721 57.4668 65.8643 57.4668C66.3564 57.4668 66.778 57.5807 67.1289 57.8086C67.4844 58.0365 67.751 58.3783 67.9287 58.834C68.1611 58.4147 68.4688 58.082 68.8516 57.8359C69.2344 57.5898 69.681 57.4668 70.1914 57.4668C70.9479 57.4668 71.5449 57.7266 71.9824 58.2461C72.4199 58.7611 72.6387 59.5381 72.6387 60.5771V63.9473L73.7529 64.1387V65H70.1709V64.1387L71.2852 63.9473V60.5635C71.2852 59.8343 71.1598 59.3193 70.9092 59.0186C70.6585 58.7132 70.2871 58.5605 69.7949 58.5605C69.3255 58.5605 68.9473 58.7269 68.6602 59.0596C68.3776 59.3877 68.2135 59.8024 68.168 60.3037V63.9473L69.2822 64.1387V65H65.707V64.1387L66.8213 63.9473V60.5635C66.8213 59.8708 66.6914 59.3649 66.4316 59.0459C66.1764 58.7223 65.805 58.5605 65.3174 58.5605C64.9072 58.5605 64.57 58.6449 64.3057 58.8135C64.0413 58.9821 63.8385 59.2191 63.6973 59.5244V63.9473L64.8115 64.1387V65H61.2363Z" fill="white"/>
<path d="M46.8669 19.5038C47.7214 20.3495 48.5224 20.3495 49.27 19.5038L56.4793 12.4476C57.1736 11.6547 57.1736 10.8619 56.4793 10.0691C55.6783 9.27621 54.8773 9.27621 54.0762 10.0691L46.8669 2.9335C47.7214 2.19352 47.7214 1.42711 46.8669 0.634271C46.1193 -0.211424 45.345 -0.211424 44.5439 0.634271L37.3346 7.53197C36.5336 8.32481 36.5336 9.11765 37.3346 9.91049C38.0823 10.6505 38.8833 10.6505 39.7377 9.91049L42.1408 12.289L37.3346 16.9668C36.5336 16.2796 35.7326 16.2796 34.9315 16.9668L26.6008 25.2916C25.7997 26.0844 25.7997 26.8772 26.6008 27.6701L28.7636 30.3657C29.618 31.2114 30.419 31.2114 31.1667 30.3657L39.5775 22.0409C39.8979 21.7238 40.0581 21.3406 40.0581 20.8913C40.0581 20.442 39.8979 20.0588 39.5775 19.7417L44.3036 14.9847L46.7067 17.3632C46.0659 17.9974 46.1193 18.711 46.8669 19.5038ZM44.5439 10.0691L42.1408 7.69054L44.5439 5.31202L51.6731 12.4476L49.27 14.8261L46.8669 12.4476L44.5439 10.0691Z" fill="white"/>
</svg>
