<svg width="100" height="100" viewBox="0 0 100 100" fill="none" xmlns="http://www.w3.org/2000/svg">
<circle cx="50" cy="50" r="50" fill="#FFEFE5"/>
<path d="M65.0001 50V43C65.0001 42.4478 64.5528 42 64.0001 42H51C50.4473 42 50 42.4478 50 43V50C50 50.5523 50.4473 51 51 51H64.0001C64.5528 51 65.0001 50.5523 65.0001 50ZM63.0001 49H52V44H63.0001V49Z" fill="#FD6038"/>
<path d="M79.9647 68.2462L75.745 52.8164C75.6267 52.3856 75.2369 52.0852 74.7909 52.0802L69.9998 52.0276V39.0001H71.9998C72.3659 39.0001 72.7029 38.8001 72.8788 38.4782C73.0538 38.1563 73.0391 37.7644 72.8396 37.4568L61.8395 20.4567C61.6546 20.1719 61.3386 20 60.9997 20H32.9995C32.9589 20 32.9209 20.0112 32.8812 20.0161C32.8521 20.0196 32.824 20.0219 32.7955 20.0277C32.6834 20.0513 32.5758 20.0888 32.4794 20.1478C32.4678 20.1549 32.4588 20.1656 32.4477 20.1728C32.3611 20.2308 32.2861 20.3036 32.2209 20.3866C32.2097 20.4009 32.1932 20.408 32.1825 20.4228L20.1824 37.4228C19.9677 37.7282 19.9404 38.1278 20.1119 38.4595C20.2833 38.792 20.6253 39.0001 20.9994 39.0001H25.9994V60.0002C25.9994 60.5529 26.4467 61.0002 26.9994 61.0002H55.1757L58.7448 74.054C58.8609 74.4799 59.2431 74.7785 59.6841 74.7901L65.161 74.9299L66.1034 79.2151C66.2038 79.6732 66.6101 80.0004 67.0798 80.0004H75.3798C75.6856 80.0004 75.9745 79.8607 76.1642 79.6214C76.3535 79.3812 76.4231 79.0687 76.3535 78.7709L74.828 72.2981L79.5303 69.3575C79.904 69.1245 80.0808 68.6722 79.9647 68.2463L79.9647 68.2462ZM60.4559 22.0003L70.1623 37.0003H44.5438L34.8365 22.0003H60.4559ZM22.9287 37.0003L32.9632 22.7854L34.003 24.3925L26.1837 35.422C26.0636 35.5908 25.9993 35.793 25.9993 36.0002V37.0002L22.9287 37.0003ZM38.9997 59.0004H33.9997V48.0004H38.9997V59.0004ZM39.9997 46.0004H32.9997C32.447 46.0004 31.9997 46.4482 31.9997 47.0004V59.0004H27.9996V36.3192L35.1716 26.203L43.16 38.5448C43.3444 38.8292 43.6609 39.0011 43.9997 39.0011H44.9997V59.0011H40.9997V47.0011C40.9997 46.4489 40.5524 46.0011 39.9997 46.0011L39.9997 46.0004ZM46.9998 59.0004V39.0003H68V52.0061L67.5125 52.0008C67.1826 52.0173 66.9 52.1414 66.7089 52.3883C66.5165 52.6374 66.4522 52.9615 66.5352 53.2642L68.9112 61.9499L65.0509 63.0035L62.675 54.3168C62.5919 54.0142 62.3714 53.7668 62.0803 53.6517C61.9611 53.6039 61.8353 53.5802 61.7102 53.5802C61.6915 53.5802 61.6732 53.5869 61.654 53.5878C61.6308 53.5892 61.6098 53.5941 61.587 53.5972C61.4491 53.6146 61.3134 53.6517 61.1906 53.7258L54.9709 57.5061C54.5892 57.7374 54.4075 58.1945 54.5267 58.6253L54.6285 59.0008L46.9998 59.0004ZM73.16 70.9833C72.7966 71.2101 72.6189 71.6436 72.7167 72.0606L74.1172 78.0008H67.8836L66.9461 73.7361C66.8475 73.287 66.4551 72.9629 65.9948 72.9509L60.4782 72.8102L56.9044 59.7382C56.904 59.7373 56.9044 59.7364 56.9044 59.7355L56.6544 58.8234L61.096 56.1243L63.3852 64.4944C63.4196 64.619 63.4794 64.7275 63.5522 64.8248C63.5736 64.8534 63.6004 64.8743 63.6245 64.9002C63.6834 64.9636 63.7459 65.0203 63.8187 65.0663C63.8509 65.0868 63.8834 65.102 63.9178 65.1185C63.9933 65.1551 64.0709 65.1815 64.154 65.1984C64.1919 65.2065 64.2281 65.2136 64.2674 65.2172C64.2951 65.2194 64.3209 65.2306 64.3491 65.2306C64.437 65.2306 64.525 65.219 64.6138 65.1953L70.404 63.6154C70.6598 63.5449 70.8777 63.377 71.0085 63.1467C71.1402 62.9163 71.1746 62.6427 71.1054 62.3869L68.8161 54.0177L68.988 54.0195H68.9889L74.0152 54.0721L77.8393 68.0562L73.16 70.9833Z" fill="#FD6038"/>
<path d="M52.1312 64.8419H47.8878C47.7392 64.8419 47.6017 64.8847 47.4727 64.9446C47.453 64.9535 47.4347 64.9638 47.4155 64.9736C47.3276 65.0214 47.2495 65.0807 47.1794 65.1526C47.1633 65.1687 47.1423 65.1754 47.1271 65.1923C47.12 65.2008 47.1182 65.2115 47.1111 65.22C47.0575 65.287 47.0169 65.3638 46.9816 65.4441C46.9619 65.4874 46.937 65.5272 46.924 65.5718L45.5258 69.7683C45.3508 70.2928 45.6343 70.8589 46.1575 71.033C46.2629 71.0682 46.3696 71.0848 46.474 71.0848C46.8928 71.0848 47.2825 70.82 47.4223 70.4013L48.2866 67.8083C49.0348 68.8865 49.4406 70.1606 49.4406 71.4981C49.4406 73.2334 48.7638 74.8651 47.5343 76.095C46.3048 77.3245 44.6732 78.0013 42.9387 78.0013C41.2043 78.0013 39.5717 77.3245 38.3418 76.095C35.8074 73.5606 35.8074 69.4369 38.3418 66.9025C39.3458 65.8985 40.6151 65.2627 42.0146 65.0627C42.5615 64.9846 42.9414 64.4779 42.8633 63.931C42.7852 63.3841 42.2802 63.0002 41.7316 63.0824C39.9004 63.344 38.2405 64.1761 36.928 65.4887C33.6137 68.803 33.6137 74.195 36.928 77.5093C38.5356 79.1164 40.67 80.0013 42.9388 80.0013C45.2076 80.0013 47.3419 79.1165 48.9487 77.5093C50.5562 75.903 51.4407 73.7682 51.4407 71.4985C51.4407 69.8191 50.9532 68.2137 50.0501 66.8423H52.1313C52.684 66.8423 53.1313 66.3949 53.1313 65.8423C53.1313 65.2891 52.684 64.8418 52.1313 64.8418L52.1312 64.8419Z" fill="#FD6038"/>
</svg>
