<svg width="100" height="100" viewBox="0 0 100 100" fill="none" xmlns="http://www.w3.org/2000/svg">
<circle cx="50" cy="50" r="50" fill="#FD6038"/>
<path d="M37.4185 46.1288V47.0964H39.3542V46.1288C39.3542 43.9939 37.6181 42.2578 35.4832 42.2578C33.3482 42.2578 31.6122 43.9939 31.6122 46.1288V47.0964H33.5478V46.1288C33.5478 45.0616 34.4159 44.1931 35.4835 44.1931C36.5503 44.1931 37.4184 45.0616 37.4184 46.1288H37.4185Z" fill="white"/>
<path d="M49.0319 42.2578C46.8969 42.2578 45.1609 43.9939 45.1609 46.1288V47.0964H47.0965V46.1288C47.0965 45.0616 47.9646 44.1931 49.0322 44.1931C50.0994 44.1931 50.9678 45.0612 50.9678 46.1288V47.0964H52.9035V46.1288C52.9027 43.9939 51.1666 42.2578 49.0317 42.2578H49.0319Z" fill="white"/>
<path d="M49.0029 53.6356C48.3257 50.9261 45.9004 49.0322 43.1067 49.0322H41.4091C38.6155 49.0322 36.19 50.9261 35.5125 53.6356L35.2115 54.8385H37.5168C37.9668 57.0442 39.9209 58.7095 42.2579 58.7095C44.595 58.7095 46.5491 57.0442 46.999 54.8385H49.3043L49.0029 53.6356ZM41.4091 50.9676H43.1067C44.5623 50.9676 45.8715 51.7226 46.6139 52.9032H37.9022C38.6443 51.7225 39.9535 50.9676 41.409 50.9676H41.4091ZM42.2579 56.7742C40.9977 56.7742 39.9334 55.9623 39.5328 54.8385H44.982C44.5823 55.9623 43.5176 56.7742 42.2578 56.7742H42.2579Z" fill="white"/>
<path d="M65.4839 48.0644V49.032C65.4839 51.167 67.2199 52.903 69.3549 52.903C71.4898 52.903 73.2259 51.167 73.2259 49.032V39.3548H75.9811L76.9487 33.5482L80.0001 33.5486V23.871H52.3818C50.7094 23.0369 48.8959 22.4535 46.9895 22.1609C46.6588 20.9212 45.5371 20 44.1937 20H40.3227C38.9796 20 37.8579 20.9212 37.5277 22.1609C30.3675 23.2574 24.5152 28.4845 22.6091 35.4842H21.9357C20.8684 35.4842 20 36.3522 20 37.4198V39.3555C20 40.4227 20.868 41.2911 21.9357 41.2911H22.9284C22.314 42.1014 21.9357 43.1005 21.9357 44.1936C21.9357 46.8617 24.1062 49.0322 26.7743 49.0322H27.7913C28.1638 54.6376 31.7167 59.3841 36.6695 61.4587C36.4519 61.604 36.2522 61.7789 36.058 61.961L26.2963 63.5878C24.7181 63.8503 23.6474 65.3491 23.9107 66.9294C24.1187 68.1796 25.0963 69.1195 26.3104 69.3138L27.2927 74.7166C27.646 76.6564 29.3326 78.0644 31.3052 78.0644C31.573 78.0644 31.8421 78.0385 32.1054 77.9849L37.6388 76.8787C39.5657 78.806 42.2263 80.0002 45.1615 80.0002H52.9034C54.1637 80.0002 55.2279 79.1882 55.6285 78.0645H58.7097C59.97 78.0645 61.0342 77.2526 61.4348 76.1288L72.2585 76.1293C74.3934 76.1293 76.1295 74.3932 76.1295 72.2583V62.5807C76.1295 60.4457 74.3934 58.7097 72.2585 58.7097H68.3875V64.5163H56.7742V70.3229H56.6089C55.92 70.3229 55.2755 70.5728 54.7536 71.011C54.2493 70.59 53.6097 70.3267 52.9032 70.3267H51.9343V69.3578C51.9343 66.0251 50.0501 63.1264 47.294 61.6623C52.5307 59.7162 56.3397 54.8429 56.7256 49.0333H57.7417C60.4098 49.0333 62.5804 46.8628 62.5804 44.1948C62.5804 43.1011 62.202 42.1026 61.5876 41.2914H62.5804C63.6476 41.2914 64.516 40.4233 64.516 39.3557V37.4201C64.516 36.3528 63.648 35.4844 62.5804 35.4844H61.9069C61.727 34.8244 61.5227 34.1761 61.275 33.5488H67.5663L68.5339 39.3554L71.2904 39.3558V49.0334C71.2904 50.1007 70.4224 50.9691 69.3548 50.9691C68.2875 50.9691 67.4191 50.1011 67.4191 49.0334V48.0658H65.4839V48.0644ZM70.3225 27.3418L68.7878 25.8071H71.8572L70.3225 27.3418ZM74.1935 26.2076V31.2128L71.6911 28.71L74.1935 26.2076ZM66.4515 26.2076L68.9543 28.7099L66.4515 31.2127L63.9492 28.7099L66.4515 26.2076ZM62.5805 27.3418L61.0458 25.8071H64.1152L62.5805 27.3418ZM64.1157 31.6133H61.0462L62.5805 30.0785L64.1157 31.6133ZM68.7877 31.6133L70.3224 30.0785L71.8575 31.6133H68.7877ZM78.0644 31.6133H76.1287L76.1291 25.8071H78.0648L78.0644 31.6133ZM58.3092 25.8071L61.2126 28.7104L59.6004 30.3226C58.4787 28.592 57.0843 27.064 55.4699 25.8071H58.3092ZM50.9678 25.3278C52.3758 25.9644 53.6736 26.8028 54.8388 27.7955V30.6457C54.8388 31.1789 54.4043 31.6133 53.8711 31.6133H51.9355C51.4023 31.6133 50.9678 31.1789 50.9678 30.6457L50.9678 25.3278ZM40.3225 21.9361H41.2902V23.8718H43.2258V21.9361H44.1935C44.7267 21.9361 45.1611 22.3705 45.1611 22.9037V35.4845H43.2254L43.2259 25.8073H41.2902V35.485H39.3546L39.355 22.9042C39.355 22.371 39.7894 21.9365 40.3226 21.9365L40.3225 21.9361ZM29.6776 27.7956C30.8428 26.8028 32.1406 25.9658 33.5486 25.3279V30.6458C33.5486 31.179 33.1142 31.6134 32.581 31.6134H30.6453C30.1121 31.6134 29.6777 31.179 29.6777 30.6458L29.6776 27.7956ZM27.742 29.7358V30.6457C27.742 32.2462 29.0444 33.5491 30.6453 33.5491H32.581C34.1815 33.5491 35.4844 32.2466 35.4844 30.6457L35.484 24.6068C36.1151 24.4122 36.7596 24.2515 37.4196 24.1334V35.4842H24.6117C25.2696 33.3405 26.3469 31.3965 27.7423 29.7357L27.742 29.7358ZM23.871 44.1938C23.871 42.5933 25.1734 41.2904 26.7744 41.2904H27.742V47.097H26.7744C25.1735 47.097 23.871 45.7946 23.871 44.1937V44.1938ZM36.2632 75.1807L33.8186 75.6696L32.278 68.4784L34.5168 68.1055V69.3557C34.5168 71.5052 35.1621 73.5053 36.2633 75.1807H36.2632ZM26.6148 65.4985L34.7263 64.1467C34.6029 64.579 34.5167 65.0239 34.5167 65.4855V66.1426L26.9341 67.4066C26.3913 67.4945 25.9075 67.1308 25.8204 66.6122C25.7325 66.0857 26.0895 65.5856 26.6147 65.4985L26.6148 65.4985ZM29.1979 74.3717L28.2487 69.1506L30.3652 68.7973L31.9192 76.0497L31.7246 76.0882C30.5787 76.3167 29.4089 75.529 29.198 74.3717L29.1979 74.3717ZM70.3228 60.6455H72.2585C73.3257 60.6455 74.1941 61.5136 74.1941 62.5812C74.1941 63.6484 73.3261 64.5168 72.2585 64.5168H70.3228V60.6455ZM58.7095 66.4517H72.2578C72.9664 66.4517 73.6214 66.2467 74.1935 65.9135L74.1931 72.2584C74.1931 73.3257 73.325 74.1941 72.2574 74.1941L61.6125 74.1937V73.226C61.6125 71.6255 60.3101 70.3227 58.7091 70.3227L58.7095 66.4517ZM56.6086 72.2584H58.7095C59.2427 72.2584 59.6772 72.6928 59.6772 73.226V75.1617C59.6772 75.6949 59.2427 76.1293 58.7095 76.1293H55.8062V73.2289C55.8062 73.0519 55.7848 72.8795 55.7538 72.7112L55.9233 72.5417C56.1062 72.3588 56.3503 72.2584 56.6085 72.2584L56.6086 72.2584ZM53.8709 73.229V77.097C53.8709 77.6303 53.4365 78.0647 52.9033 78.0647H45.1613C40.3596 78.0647 36.4517 74.1568 36.4517 69.3551V65.4863C36.4517 64.7111 36.7535 63.9812 37.3022 63.4338C37.8501 62.886 38.5787 62.5842 39.3546 62.5842C40.1298 62.5842 40.8597 62.886 41.4071 63.4346C41.9562 63.9813 42.2579 64.7112 42.2579 65.4862L42.2571 70.8932L40.6073 72.5423L41.9747 73.9117L43.6258 72.2626L52.9033 72.2622C53.4365 72.2614 53.8709 72.6958 53.8709 73.229L53.8709 73.229ZM49.9991 69.3571V70.326H44.1925L44.1933 65.4861C44.1933 64.4206 43.835 63.4181 43.2022 62.5828H43.2244C46.9593 62.5828 49.9991 65.6212 49.9991 69.3571H49.9991ZM42.258 60.6454C35.3213 60.6454 29.6772 55.0015 29.6772 48.0646V41.2902H54.8388V48.0646C54.8383 55.0013 49.1944 60.6454 42.258 60.6454ZM60.6449 44.1935C60.6449 45.794 59.3424 47.0969 57.7415 47.0969H56.7739V41.2902H57.7415C59.3423 41.2907 60.6449 42.5931 60.6449 44.1936V44.1935ZM62.5801 39.3549H21.9352L21.9344 37.4193L21.9352 37.4197H62.5812L62.5801 39.3549ZM47.0957 35.4839V24.1342C47.7557 24.2522 48.4003 24.413 49.0314 24.6076V30.6453C49.0314 32.2458 50.3338 33.5487 51.9347 33.5487H53.8704C55.4709 33.5487 56.7738 32.2463 56.7738 30.6453V29.7354C58.1691 31.3962 59.2464 33.3403 59.9044 35.4839L47.0957 35.4839ZM69.5283 33.5487H74.9856L74.3402 37.4197H70.1729L69.5283 33.5487Z" fill="white"/>
</svg>
