<svg width="22" height="22" viewBox="0 0 22 22" fill="none" xmlns="http://www.w3.org/2000/svg">
<path d="M10.6413 0.726795C10.788 0.429497 11.212 0.429496 11.3587 0.726794L14.4336 6.95732C14.4919 7.07538 14.6045 7.15721 14.7348 7.17614L21.6106 8.17525C21.9387 8.22292 22.0697 8.62611 21.8323 8.85753L16.8569 13.7073C16.7627 13.7992 16.7196 13.9316 16.7419 14.0614L17.9164 20.9094C17.9725 21.2361 17.6295 21.4853 17.336 21.3311L11.1861 18.0979C11.0696 18.0366 10.9304 18.0366 10.8139 18.0979L4.66397 21.3311C4.37052 21.4853 4.02754 21.2361 4.08359 20.9094L5.25811 14.0614C5.28037 13.9316 5.23735 13.7992 5.14307 13.7073L0.167703 8.85753C-0.0697043 8.62611 0.0612992 8.22292 0.389387 8.17525L7.26518 7.17614C7.39547 7.15721 7.50809 7.07538 7.56636 6.95732L10.6413 0.726795Z" fill="#F4A641"/>
</svg>
