<svg width="24" height="24" viewBox="0 0 24 24" fill="none" xmlns="http://www.w3.org/2000/svg">
<rect width="24" height="24" fill="#1E1E1E"/>
<g id="Real Estate Law Firm" clip-path="url(#clip0_0_1)">
<rect width="1440" height="10376" transform="translate(-228 -3702)" fill="white"/>
<g id="Properties">
<g id="Group 18540">
<g id="Group 18535">
<g id="Group 18534">
<g id="Group 18532">
<g id="noun-bathroom-4199766">
<path id="Vector" d="M15.8962 3.83111C14.5257 3.83111 13.4026 4.91042 13.3209 6.26111C12.4446 6.47553 11.7862 7.26397 11.7862 8.2036V8.69296C11.787 8.82394 11.8395 8.94917 11.9326 9.04144C12.0255 9.13372 12.1511 9.18541 12.2821 9.18515H15.3046C15.4352 9.18461 15.5601 9.13265 15.6525 9.0405C15.7448 8.94836 15.797 8.8234 15.7977 8.69295V8.20359C15.7977 7.27318 15.1516 6.49211 14.2883 6.26857C14.3629 5.43354 15.0393 4.79106 15.8962 4.79106C16.8043 4.79106 17.5227 5.50945 17.5227 6.41761V11.8354H5.07186C4.39486 11.8354 3.83154 12.395 3.83154 13.072C3.83154 13.6061 4.18458 14.0628 4.66499 14.2336L5.56407 17.2889C5.66505 17.6321 5.80983 17.9775 6.06375 18.2667C6.29812 18.5336 6.65439 18.7306 7.06218 18.7607L6.68062 19.4254C6.6083 19.5355 6.58432 19.6708 6.61459 19.7991C6.64486 19.9274 6.72655 20.0377 6.84053 20.104C6.9545 20.1703 7.09084 20.1868 7.21726 20.1496C7.34382 20.1123 7.44949 20.0248 7.50935 19.9073L8.14028 18.8161C8.14858 18.802 8.15608 18.7877 8.16278 18.7729H15.825C15.8318 18.7877 15.8393 18.802 15.8476 18.8161L16.4748 19.9073C16.6102 20.1318 16.9005 20.2064 17.1275 20.075C17.3544 19.9436 17.4344 19.6547 17.3073 19.4254L16.9229 18.7607C17.3307 18.7305 17.689 18.5335 17.9232 18.2667C18.1771 17.9775 18.3219 17.6321 18.4229 17.2889L19.3229 14.2335C19.8021 14.0625 20.1526 13.6058 20.1526 13.072C20.1526 12.395 19.593 11.8354 18.916 11.8354H18.4839V6.4176C18.4839 4.9942 17.3198 3.83105 15.8963 3.83105L15.8962 3.83111ZM13.7577 7.19018C13.7813 7.19166 13.8035 7.19166 13.8271 7.19018C14.3765 7.2088 14.7961 7.64378 14.8021 8.19705H12.7856C12.7916 7.64313 13.2077 7.20798 13.7578 7.19018H13.7577ZM5.0718 12.7956H18.916C19.0778 12.7956 19.1917 12.9103 19.1917 13.0721C19.1917 13.2339 19.0778 13.3524 18.916 13.3524H5.0718C4.91001 13.3524 4.79148 13.2339 4.79148 13.0721C4.79148 12.9103 4.91001 12.7956 5.0718 12.7956ZM5.68774 14.3087H18.3001L17.5023 17.0162C17.425 17.2788 17.3177 17.5027 17.2041 17.6321C17.0906 17.7615 17.002 17.8131 16.8216 17.8131H7.16267C6.98227 17.8131 6.89749 17.7615 6.78391 17.6321C6.67034 17.5028 6.55931 17.2788 6.48204 17.0162L5.68774 14.3087Z" fill="#FD6038"/>
</g>
</g>
</g>
</g>
</g>
</g>
</g>
<defs>
<clipPath id="clip0_0_1">
<rect width="1440" height="10376" fill="white" transform="translate(-228 -3702)"/>
</clipPath>
</defs>
</svg>
