<svg width="24" height="24" viewBox="0 0 24 24" fill="none" xmlns="http://www.w3.org/2000/svg">
<rect width="24" height="24" fill="#1E1E1E"/>
<g id="Real Estate Law Firm" clip-path="url(#clip0_0_1)">
<rect width="1440" height="10376" transform="translate(-135 -3702)" fill="white"/>
<g id="Properties">
<g id="Group 18540">
<g id="Group 18535">
<g id="Group 18534">
<g id="Group 18531">
<g id="noun-bed-3551413">
<g id="Group">
<path id="Vector" d="M16.7952 11.3335V8.4381C16.7952 7.87801 16.5727 7.34082 16.1766 6.94479C15.7805 6.54862 15.2433 6.32617 14.6831 6.32617H9.3071C8.74687 6.32617 8.20969 6.54863 7.81365 6.94479C7.41748 7.34082 7.19503 7.87801 7.19503 8.4381V11.3335C6.87548 11.3797 6.5831 11.5393 6.37163 11.7832C6.16002 12.0272 6.04337 12.3393 6.04297 12.6622V17.6542H7.19504V15.9263L16.795 15.9261V17.6541H17.9471V12.6621V12.6622C17.9467 12.3393 17.8301 12.0272 17.6184 11.7832C17.407 11.5393 17.1146 11.3797 16.795 11.3335H16.7952ZM9.30717 7.47807H14.6832C14.9378 7.47807 15.1821 7.57932 15.3621 7.75932C15.5421 7.93932 15.6432 8.18347 15.6432 8.43807V9.30218C15.0812 8.90789 14.3892 8.74448 13.7103 8.846C13.0313 8.94752 12.4174 9.30605 11.9952 9.84739C11.5731 9.30605 10.9592 8.94752 10.2802 8.846C9.60128 8.74449 8.90929 8.90788 8.34732 9.30218V8.43807C8.34732 8.18347 8.44843 7.93932 8.62843 7.75932C8.80843 7.57932 9.05272 7.47807 9.30732 7.47807H9.30717ZM15.6315 11.3181H12.5825C12.6441 10.8177 12.9473 10.3795 13.394 10.1454C13.8405 9.91142 14.3734 9.91142 14.82 10.1454C15.2665 10.3795 15.5698 10.8177 15.6314 11.3181H15.6315ZM11.4075 11.3181H8.35848C8.42009 10.8177 8.72332 10.3795 9.16982 10.1454C9.61646 9.91142 10.1494 9.91142 10.5959 10.1454C11.0425 10.3795 11.3458 10.8177 11.4074 11.3181H11.4075ZM7.19483 14.7741V12.662V12.6621C7.19483 12.5561 7.28081 12.4701 7.38688 12.4701H16.6029C16.6539 12.4701 16.7027 12.4903 16.7387 12.5263C16.7747 12.5624 16.7949 12.6111 16.7949 12.6621V14.7742L7.19483 14.7741Z" fill="#FD6038"/>
</g>
</g>
</g>
</g>
</g>
</g>
</g>
</g>
<defs>
<clipPath id="clip0_0_1">
<rect width="1440" height="10376" fill="white" transform="translate(-135 -3702)"/>
</clipPath>
</defs>
</svg>
