<svg width="122" height="38" viewBox="0 0 122 38" fill="none" xmlns="http://www.w3.org/2000/svg">
<path d="M70.6208 2.10315V4.86985C70.6283 5.05539 70.7083 5.23057 70.8436 5.35777C70.9789 5.48496 71.1587 5.55402 71.3443 5.5501H77.7707L70.3663 16.146C69.8982 16.8272 69.8982 17.5928 69.8982 18.0183V20.8266C69.8982 21.2522 70.366 21.6776 70.7916 21.4649C74.9618 19.2095 80.0257 19.4222 83.8131 21.4223C84.2809 21.6774 84.7065 21.2096 84.7065 20.784V17.8478C84.6637 17.4649 84.5362 17.0393 84.0681 16.784C81.9408 15.5928 79.4298 15.2524 77.0467 15.295L83.4297 6.1884C84.0256 5.33699 84.3659 4.82661 84.3659 4.44363V2.10315C84.3586 1.9175 84.2787 1.74215 84.1434 1.61482C84.0081 1.48749 83.8282 1.41834 83.6424 1.42225H71.3017C71.211 1.41742 71.1203 1.43172 71.0355 1.46423C70.9508 1.49674 70.8737 1.54672 70.8095 1.61094C70.7453 1.67516 70.6953 1.75217 70.6628 1.83697C70.6303 1.92177 70.616 2.01246 70.6208 2.10315Z" fill="#C4C4C4"/>
<path d="M21.8965 22.0184H25.6413C25.8251 22.0249 26.0049 21.9635 26.1462 21.8458C26.2876 21.728 26.3805 21.5622 26.4072 21.3802V11.1672C26.4072 11.1005 26.4072 11.0331 26.4071 10.9651C26.4046 8.73324 26.4015 5.84789 29.0031 5.84789C31.3785 5.84789 31.3392 8.43514 31.3078 10.5037C31.3043 10.7326 31.3009 10.9552 31.3009 11.1672V21.3802C31.3009 21.7208 31.5989 22.0185 31.9818 22.0611H35.7266C35.9123 22.065 36.0922 21.9959 36.2274 21.8685C36.3627 21.7412 36.4426 21.5659 36.4499 21.3802V11.1672C36.4499 11.0697 36.4496 10.9682 36.4493 10.8636C36.4457 9.78075 36.4411 8.35745 36.7903 7.46501C36.9718 7.01121 37.282 6.62038 37.6827 6.34062C38.0834 6.06086 38.5572 5.9044 39.0457 5.89049C40.1522 5.89049 40.9608 6.27347 41.2586 7.55007C41.3921 8.15116 41.3684 9.53841 41.3521 10.4985C41.3476 10.7619 41.3436 10.9931 41.3436 11.1672V21.3802C41.3436 21.7208 41.6416 22.0185 42.0245 22.0611H45.7272C45.9129 22.065 46.0928 21.9959 46.228 21.8685C46.3633 21.7412 46.4432 21.5659 46.4506 21.3802V9.20978C46.4506 8.89968 46.4562 8.58392 46.4619 8.26574C46.4944 6.44447 46.5283 4.54366 45.5143 3.16715C44.4505 1.6777 42.7483 1.0394 41.1738 1.0394C38.9607 1.0394 36.8753 2.18834 35.9819 4.61389C34.9605 2.18834 33.4712 1.0394 31.1307 1.0394C28.8328 1.0394 27.0878 2.18834 26.1944 4.61389H26.1093V2.10315C26.0956 1.93111 26.0182 1.77037 25.8923 1.65234C25.7664 1.53431 25.601 1.46745 25.4284 1.46484H21.939C21.7533 1.46097 21.5734 1.53013 21.4382 1.65746C21.3029 1.78479 21.223 1.96012 21.2156 2.14574V21.3801C21.2434 21.5465 21.325 21.6991 21.4481 21.8145C21.5711 21.9298 21.7287 22.0015 21.8965 22.0184Z" fill="#C4C4C4"/>
<path fill-rule="evenodd" clip-rule="evenodd" d="M103.6 11.8907C103.6 5.80543 100.579 1.0394 95.0043 1.0394C89.5574 1.0394 86.536 5.72023 86.5786 11.7204C86.5786 17.678 89.5574 22.444 95.0043 22.444C100.281 22.444 103.6 17.7632 103.6 11.8907ZM92.0681 11.1247C92.0681 8.78421 92.2383 4.99686 95.0043 4.99686C96.1959 4.99686 97.0469 5.50738 97.4725 6.86917C97.9407 8.40123 98.0257 10.3586 98.0257 11.9757C98.0257 14.4439 97.8556 18.4865 94.9619 18.4865C92.0663 18.4865 92.0675 13.6036 92.0681 11.2237L92.0681 11.1247Z" fill="#C4C4C4"/>
<path d="M107.047 22.0184H110.792C110.98 22.0167 111.162 21.9472 111.302 21.822C111.443 21.6968 111.534 21.5248 111.558 21.3379V10.9542C111.558 9.63498 111.643 8.48564 112.153 7.29449C112.579 6.35814 113.43 5.76257 114.324 5.76257C116.711 5.76257 116.687 8.35407 116.667 10.4255C116.666 10.6065 116.664 10.7835 116.664 10.9544V21.4225C116.707 21.7202 117.005 21.9754 117.345 22.018H121.09C121.263 22.0257 121.432 21.9691 121.566 21.8591C121.7 21.7491 121.788 21.5936 121.813 21.4225V9.29459C121.813 7.42215 121.813 4.82635 120.835 3.29443C119.771 1.63458 118.111 1.03901 116.452 1.03901C113.856 1.03901 112.409 2.27302 111.345 4.91142H111.26V1.97523C111.222 1.82149 111.135 1.68429 111.012 1.58445C110.889 1.48461 110.737 1.42757 110.579 1.42199H107.09C106.912 1.42334 106.742 1.48866 106.609 1.60594C106.476 1.72322 106.39 1.88457 106.366 2.06029V21.3375C106.366 21.678 106.664 21.9758 107.047 22.0184Z" fill="#C4C4C4"/>
<path fill-rule="evenodd" clip-rule="evenodd" d="M64.1455 22.1622C64.3057 22.147 64.4572 22.0818 64.5785 21.9759L64.5799 21.9758C64.8518 21.7492 65.1988 21.4529 65.5694 21.1364C66.2429 20.5613 66.9945 19.9194 67.5161 19.5077C67.8139 19.295 67.7714 18.8694 67.5161 18.529C67.434 18.4111 67.3514 18.2963 67.2695 18.1824C66.6714 17.3515 66.1118 16.5741 66.1118 15.0396V9.20966C66.1118 9.01483 66.1129 8.82105 66.1139 8.62854C66.1262 6.3829 66.1376 4.30923 64.4522 2.74145C63.0054 1.33719 60.6224 0.869141 58.7926 0.869141C55.2181 0.869141 51.2605 2.18834 50.4095 6.61398C50.3244 7.08216 50.6649 7.29488 50.9627 7.37994L54.5798 7.76293C54.9203 7.76293 55.133 7.42241 55.2181 7.08203C55.516 5.54997 56.7926 4.82661 58.2395 4.82661C59.0048 4.82661 59.8559 5.1244 60.324 5.8053C60.813 6.4825 60.8032 7.39278 60.7943 8.21205C60.7932 8.31943 60.792 8.42524 60.792 8.52876V8.9968C60.4392 9.03832 60.0683 9.07759 59.6859 9.1181C57.7162 9.32669 55.4385 9.5679 53.7281 10.316C51.387 11.3374 49.7274 13.38 49.7274 16.4438C49.7274 20.3162 52.1955 22.2737 55.3446 22.2737C57.9828 22.2737 59.4723 21.6348 61.5149 19.5503C61.6143 19.6932 61.7047 19.8261 61.7904 19.9521C62.2915 20.6891 62.6313 21.1889 63.6851 22.061C63.8242 22.1421 63.9852 22.1775 64.1455 22.1622ZM60.7914 13.0554C60.7912 12.9798 60.7911 12.9036 60.7911 12.8269V12.019C58.0677 12.019 55.2165 12.6148 55.2165 15.8063C55.2165 17.4234 56.0676 18.5298 57.5144 18.5298C58.5783 18.5298 59.5146 17.8915 60.1102 16.8276C60.7953 15.5778 60.7935 14.4049 60.7914 13.0554Z" fill="#C4C4C4"/>
<path fill-rule="evenodd" clip-rule="evenodd" d="M14.9527 22.1622C15.113 22.147 15.2644 22.0818 15.3857 21.9759L15.3872 21.9758C15.6591 21.7492 16.006 21.4529 16.3767 21.1364C17.0502 20.5613 17.8018 19.9194 18.3233 19.5077C18.6211 19.295 18.5787 18.8694 18.3233 18.529C18.2413 18.4111 18.1587 18.2963 18.0767 18.1825C17.4787 17.3515 16.9191 16.5741 16.9191 15.0396V9.20966C16.9191 9.01483 16.9201 8.82106 16.9212 8.62855C16.9335 6.38291 16.9449 4.30923 15.2595 2.74145C13.8126 1.33719 11.4297 0.869141 9.59985 0.869141C6.02536 0.869141 2.06776 2.18834 1.21673 6.61398C1.13167 7.08216 1.47218 7.29488 1.76997 7.37994L5.38705 7.76293C5.72757 7.76293 5.94029 7.42241 6.02536 7.08203C6.32327 5.54997 7.59988 4.82661 9.04674 4.82661C9.81205 4.82661 10.6632 5.1244 11.1313 5.8053C11.6203 6.4825 11.6104 7.39278 11.6016 8.21205C11.6004 8.31943 11.5993 8.42524 11.5993 8.52876V8.9968C11.2465 9.03832 10.8756 9.07759 10.4932 9.1181C8.52351 9.32669 6.24582 9.5679 4.53538 10.316C2.19425 11.3374 0.534668 13.38 0.534668 16.4438C0.534668 20.3162 3.00281 22.2737 6.15185 22.2737C8.79012 22.2737 10.2796 21.6348 12.3221 19.5503C12.4216 19.6932 12.512 19.8261 12.5977 19.9521C13.0988 20.6891 13.4385 21.1889 14.4924 22.061C14.6315 22.1421 14.7925 22.1775 14.9527 22.1622ZM11.6412 13.0554C11.6411 12.9798 11.641 12.9036 11.641 12.8269V12.019C8.91752 12.019 6.0664 12.6148 6.0664 15.8063C6.0664 17.4234 6.91743 18.5298 8.36429 18.5298C9.42817 18.5298 10.3645 17.8915 10.9601 16.8276C11.6452 15.5778 11.6433 14.4049 11.6412 13.0554Z" fill="#C4C4C4"/>
<path d="M78.7056 26.0611C77.8122 24.9121 72.748 25.5078 70.4927 25.8058C69.8118 25.8908 69.6842 25.2951 70.3225 24.8695C74.3651 22.0184 80.961 22.8694 81.7269 23.8057C82.4929 24.7419 81.5142 31.3798 77.7262 34.5293C77.1307 34.9973 76.5773 34.742 76.8329 34.1037L76.8774 33.9924C77.7489 31.8156 79.5839 27.2319 78.7056 26.0611Z" fill="#C4C4C4"/>
<path d="M75.7696 29.4231C68.7481 34.615 58.5352 37.3808 49.7265 37.3808C37.3858 37.3808 26.3218 32.8275 17.8961 25.2529C17.2578 24.6574 17.811 23.8487 18.6194 24.3167C27.6835 29.5934 38.8752 32.7424 50.4498 32.7424C58.2373 32.7424 66.8331 31.1254 74.7482 27.7635C75.9393 27.2955 76.9185 28.5721 75.7696 29.4231Z" fill="#C4C4C4"/>
</svg>
