<svg width="117" height="40" viewBox="0 0 117 40" fill="none" xmlns="http://www.w3.org/2000/svg">
<path fill-rule="evenodd" clip-rule="evenodd" d="M10.8783 4.44727C9.24055 4.44847 7.91509 5.7749 7.9163 7.40939C7.91509 9.04387 9.24176 10.3703 10.8795 10.3715H13.8427V7.4106C13.8439 5.77611 12.5173 4.44968 10.8783 4.44727C10.8795 4.44727 10.8795 4.44727 10.8783 4.44727V4.44727ZM10.8783 12.3479H2.97884C1.34108 12.3491 0.0144178 13.6755 0.0156283 15.31C0.0132074 16.9445 1.33987 18.2709 2.97763 18.2733H10.8783C12.5161 18.2721 13.8427 16.9457 13.8415 15.3112C13.8427 13.6755 12.5161 12.3491 10.8783 12.3479Z" fill="#C4C4C4"/>
<path fill-rule="evenodd" clip-rule="evenodd" d="M29.6428 15.31C29.644 13.6755 28.3173 12.3491 26.6796 12.3479C25.0418 12.3491 23.7152 13.6755 23.7164 15.31V18.2733H26.6796C28.3173 18.2721 29.644 16.9457 29.6428 15.31ZM21.7421 15.31V7.40939C21.7433 5.77611 20.4179 4.44968 18.7801 4.44727C17.1424 4.44847 15.8157 5.7749 15.8169 7.40939V15.31C15.8145 16.9445 17.1411 18.2709 18.7789 18.2733C20.4166 18.2721 21.7433 16.9457 21.7421 15.31Z" fill="#C4C4C4"/>
<path fill-rule="evenodd" clip-rule="evenodd" d="M18.7801 34.0753C20.4179 34.0741 21.7445 32.7477 21.7433 31.1132C21.7445 29.4787 20.4179 28.1523 18.7801 28.1511H15.8169V31.1132C15.8157 32.7465 17.1423 34.0729 18.7801 34.0753ZM18.7801 26.1735H26.6808C28.3185 26.1723 29.6452 24.8459 29.644 23.2114C29.6464 21.5769 28.3197 20.2505 26.682 20.248H18.7813C17.1436 20.2493 15.8169 21.5757 15.8181 23.2102C15.8169 24.8459 17.1423 26.1723 18.7801 26.1735Z" fill="#C4C4C4"/>
<path fill-rule="evenodd" clip-rule="evenodd" d="M0.0156258 23.2102C0.0144154 24.8447 1.34108 26.1711 2.97883 26.1723C4.61659 26.1711 5.94325 24.8447 5.94204 23.2102V20.248H2.97883C1.34108 20.2493 0.0144154 21.5757 0.0156258 23.2102ZM7.9163 23.2102V31.1108C7.91388 32.7453 9.24055 34.0717 10.8783 34.0741C12.5161 34.0729 13.8427 32.7465 13.8415 31.112V23.2126C13.8439 21.5781 12.5173 20.2517 10.8795 20.2493C9.24055 20.2493 7.91509 21.5757 7.9163 23.2102C7.9163 23.2114 7.9163 23.2102 7.9163 23.2102Z" fill="#C4C4C4"/>
<path d="M38.3493 25.7926L41.1577 24.157C42.3922 25.9675 43.997 26.8728 45.9722 26.8728C46.9392 26.8728 47.7005 26.6876 48.256 26.3173C48.8321 25.9264 49.1201 25.412 49.1201 24.7742C49.1201 24.2598 48.8835 23.8072 48.4103 23.4163C47.9577 23.0254 47.4742 22.7373 46.9598 22.5521C46.4454 22.3464 45.6739 22.0789 44.6451 21.7497C44.46 21.688 44.3262 21.6468 44.2439 21.6263C43.5032 21.3794 42.8757 21.1428 42.3614 20.9164C41.8676 20.6696 41.3429 20.3506 40.7874 19.9597C40.2319 19.5482 39.8101 19.0441 39.522 18.4475C39.234 17.8302 39.09 17.1204 39.09 16.318C39.09 14.7543 39.7484 13.4993 41.0651 12.5528C42.3819 11.6064 44.0176 11.1332 45.9722 11.1332C47.433 11.1332 48.8115 11.5241 50.1077 12.3059C51.4039 13.0672 52.3709 14.0445 53.0088 15.2378L50.4163 16.8118C49.2024 15.1452 47.7313 14.312 46.0031 14.312C45.0566 14.312 44.3262 14.5074 43.8119 14.8983C43.3181 15.2687 43.0712 15.7625 43.0712 16.3797C43.0712 16.8941 43.2872 17.357 43.7193 17.7685C44.1719 18.1594 44.6349 18.4475 45.1081 18.6327C45.5813 18.8178 46.25 19.0544 47.1141 19.3425C47.3404 19.4042 47.505 19.4556 47.6079 19.4968C51.2702 20.6696 53.1013 22.439 53.1013 24.8051C53.1013 26.2659 52.4841 27.5106 51.2496 28.5394C50.0357 29.5475 48.3074 30.0516 46.0648 30.0516C44.3365 30.0516 42.7934 29.671 41.4355 28.9097C40.0981 28.1485 39.0694 27.1094 38.3493 25.7926ZM56.4962 29.4961V4.28181H60.3848V29.4961H56.4962ZM67.8534 24.4964C67.8534 25.1548 68.1106 25.7104 68.625 26.163C69.1599 26.5951 69.8594 26.8111 70.7236 26.8111C71.9581 26.8111 73.0074 26.3996 73.8715 25.5766C74.7562 24.7536 75.1986 23.6735 75.1986 22.3361V20.7004C74.2521 20.9267 73.1102 21.1428 71.7729 21.3485C69.1599 21.76 67.8534 22.8093 67.8534 24.4964ZM63.9031 24.8359C63.9031 21.4823 66.3926 19.4351 71.3717 18.6944C73.1822 18.4269 74.4579 18.18 75.1986 17.9537V16.997C75.1986 16.1328 74.8899 15.4539 74.2727 14.9601C73.6555 14.4663 72.8325 14.2194 71.8037 14.2194C69.8491 14.2194 68.162 15.0218 66.7424 16.6266L64.366 14.5897C65.2919 13.4993 66.3926 12.6557 67.6682 12.059C68.9644 11.4418 70.3224 11.1332 71.742 11.1332C74.3962 11.1332 76.289 11.7813 77.4206 13.0775C78.5522 14.3531 79.118 16.1431 79.118 18.4475V29.4961H75.322V27.274C74.9517 28.0353 74.3036 28.6937 73.3777 29.2492C72.4724 29.7841 71.4025 30.0516 70.1681 30.0516C68.2135 30.0516 66.6806 29.5681 65.5696 28.6011C64.4586 27.6341 63.9031 26.379 63.9031 24.8359ZM82.1117 20.6078C82.1117 17.7479 82.8729 15.4539 84.3955 13.7256C85.9386 11.9973 87.924 11.1332 90.3518 11.1332C92.1213 11.1332 93.6129 11.6681 94.8268 12.738C96.0407 13.8079 96.802 15.0321 97.1106 16.4106L93.7775 17.3364C93.5306 16.5546 93.1088 15.8859 92.5122 15.3304C91.9155 14.7543 91.2057 14.4663 90.3827 14.4663C89.0453 14.4663 87.996 15.0527 87.2348 16.2254C86.4941 17.3982 86.1237 18.859 86.1237 20.6078C86.1237 22.5418 86.5249 24.0438 87.3273 25.1137C88.1298 26.1836 89.1482 26.7185 90.3827 26.7185C91.288 26.7185 92.0801 26.4099 92.7591 25.7926C93.4586 25.1548 93.9421 24.4347 94.2096 23.6323L97.5427 24.589C97.1518 26.0293 96.2979 27.3049 94.9811 28.4159C93.6644 29.5064 92.1213 30.0516 90.3518 30.0516C87.924 30.0516 85.9386 29.1978 84.3955 27.4901C82.8729 25.7618 82.1117 23.4677 82.1117 20.6078ZM100.475 29.4961V4.28181H104.363V18.787L110.69 11.6887H115.597L109.023 18.9413L115.998 29.4961H111.431L106.493 21.688L104.363 24.0335V29.4961H100.475Z" fill="#C4C4C4"/>
</svg>
