<svg width="100" height="100" viewBox="0 0 100 100" fill="none" xmlns="http://www.w3.org/2000/svg">
<circle cx="50" cy="50" r="50" fill="#FFEFE5"/>
<path d="M76.1859 25.0803C65.36 24.5563 57.2748 22.6964 51.4835 19.393C50.5554 18.869 49.4569 18.869 48.5289 19.393C42.7374 22.6964 34.6632 24.5563 23.8265 25.0803C22.2371 25.1552 21 26.4595 21 28.0305C21 50.2122 21 71.1648 49.0082 80.8396C49.3177 80.9466 49.6587 81 50.0001 81C50.3415 81 50.6719 80.9466 50.9919 80.8396C78.9904 71.165 79.0001 50.2122 79.0001 28.0305C79.0001 26.4485 77.7631 25.1547 76.1736 25.0803H76.1859ZM50.3108 78.8192C50.1294 78.8831 49.9056 78.8831 49.7242 78.8192C23.1556 69.6362 23.1556 49.4207 23.1446 28.0307C23.1446 27.5926 23.4965 27.2395 23.9445 27.2185C35.1119 26.684 43.5065 24.7278 49.5965 21.2535C49.7246 21.1786 49.8736 21.1361 50.0127 21.1361C50.1512 21.1361 50.3008 21.1791 50.4288 21.2535C56.5189 24.7279 64.9126 26.6735 76.0808 27.2185C76.5289 27.24 76.8808 27.6031 76.8808 28.0307C76.8808 49.433 76.8808 69.6367 50.3121 78.8192H50.3108Z" fill="#FD6038"/>
<path d="M73.743 29.2168C63.9518 28.5539 56.3471 26.7581 50.5021 23.7218C50.1926 23.5615 49.8303 23.5615 49.5208 23.7218C43.6759 26.7581 36.0707 28.5539 26.2799 29.2168C25.7147 29.2597 25.2881 29.7193 25.2881 30.2858C25.3843 52.9598 27.1332 68.4171 49.6601 76.5208C49.7773 76.5638 49.8949 76.5848 50.023 76.5848C50.1511 76.5848 50.2682 76.5633 50.3858 76.5208C72.9124 68.4179 74.6616 52.9488 74.7579 30.2858C74.7579 29.7193 74.3208 29.2488 73.766 29.2168H73.743ZM50.0109 74.3828C29.3933 66.8143 27.5587 52.9916 27.421 31.2803C36.7641 30.564 44.1769 28.7896 50.0109 25.8713C55.8452 28.7897 63.2477 30.5645 72.6008 31.2803C72.4623 52.9916 70.6276 66.8142 50.0109 74.3828Z" fill="#FD6038"/>
<path d="M43.6115 38.1006V40.6127C42.1287 40.7091 40.945 41.9385 40.945 43.4456V46.7916H38.0866C37.6495 45.5518 36.4762 44.6536 35.0787 44.6536C33.3188 44.6536 31.8789 46.0967 31.8789 47.8606C31.8789 49.6245 33.3188 51.0676 35.0787 51.0676C36.4653 51.0676 37.6385 50.1695 38.0866 48.9296H40.945V52.361C40.945 53.9325 42.2249 55.2153 43.7929 55.2153H44.678V58.5612H42.353C41.9159 57.3214 40.7426 56.4232 39.3451 56.4232C37.5851 56.4232 36.1453 57.8663 36.1453 59.6302C36.1453 61.3942 37.5851 62.8373 39.3451 62.8373C40.7316 62.8373 41.9049 61.9391 42.353 60.6992H44.678C45.8513 60.6992 46.8112 59.7371 46.8112 58.5612V55.2153H48.9444V60.8915C47.7074 61.3296 46.8112 62.5056 46.8112 63.9063C46.8112 65.6702 48.2511 67.1133 50.011 67.1133C51.771 67.1133 53.2108 65.6702 53.2108 63.9063C53.2108 62.5166 52.3147 61.3407 51.0776 60.8915V55.2153H53.2108V58.5612C53.2108 59.7371 54.1708 60.6992 55.344 60.6992H57.6691C58.1062 61.9391 59.2794 62.8373 60.677 62.8373C62.4369 62.8373 63.8768 61.3942 63.8768 59.6302C63.8768 57.8663 62.4369 56.4232 60.677 56.4232C59.2904 56.4232 58.1172 57.3214 57.6691 58.5612H55.344V55.2153H56.2292C57.7971 55.2153 59.0771 53.9325 59.0771 52.361V48.9296H61.9354C62.3725 50.1694 63.5458 51.0676 64.9434 51.0676C66.7033 51.0676 68.1431 49.6245 68.1431 47.8606C68.1431 46.0967 66.7033 44.6536 64.9434 44.6536C63.5568 44.6536 62.3835 45.5517 61.9354 46.7916H59.0771V43.4456C59.0771 41.9385 57.8933 40.7092 56.4106 40.6127V38.1006C56.4106 34.5623 53.5412 31.6865 50.011 31.6865C46.4807 31.6865 43.6114 34.5623 43.6114 38.1006H43.6115ZM35.0787 48.9296C34.4921 48.9296 34.0121 48.4486 34.0121 47.8606C34.0121 47.2726 34.4921 46.7916 35.0787 46.7916C35.6653 46.7916 36.1453 47.2726 36.1453 47.8606C36.1453 48.4486 35.6653 48.9296 35.0787 48.9296ZM39.3451 60.6887C38.7585 60.6887 38.2785 60.2077 38.2785 59.6197C38.2785 59.0318 38.7585 58.5507 39.3451 58.5507C39.9317 58.5507 40.4117 59.0318 40.4117 59.6197C40.4117 60.2077 39.9317 60.6887 39.3451 60.6887ZM50.0111 64.9648C49.4244 64.9648 48.9445 64.4837 48.9445 63.8958C48.9445 63.3078 49.4244 62.8268 50.0111 62.8268C50.5977 62.8268 51.0777 63.3078 51.0777 63.8958C51.0777 64.4837 50.5977 64.9648 50.0111 64.9648ZM60.677 58.5507C61.2637 58.5507 61.7436 59.0318 61.7436 59.6197C61.7436 60.2077 61.2637 60.6887 60.677 60.6887C60.0904 60.6887 59.6104 60.2077 59.6104 59.6197C59.6104 59.0318 60.0904 58.5507 60.677 58.5507ZM64.9434 46.7916C65.5301 46.7916 66.01 47.2726 66.01 47.8606C66.01 48.4486 65.5301 48.9296 64.9434 48.9296C64.3568 48.9296 63.8768 48.4486 63.8768 47.8606C63.8768 47.2726 64.3568 46.7916 64.9434 46.7916ZM56.9439 43.4456V52.3504C56.9439 52.7461 56.624 53.0668 56.2292 53.0668H43.7823C43.3876 53.0668 43.0676 52.7461 43.0676 52.3504V43.4456C43.0676 43.05 43.3876 42.7293 43.7823 42.7293H56.2292C56.624 42.7293 56.9439 43.05 56.9439 43.4456ZM54.2775 38.1006V40.5913H45.7447V38.1006C45.7447 35.7383 47.6541 33.8245 50.0111 33.8245C52.3681 33.8245 54.2775 35.7383 54.2775 38.1006Z" fill="#FD6038"/>
<path d="M50.0113 45.2314C48.934 45.2314 48.0591 46.1081 48.0591 47.1877C48.0591 47.872 48.411 48.481 48.9445 48.8232V49.6784C48.9445 50.2664 49.4245 50.7474 50.0113 50.7474C50.5981 50.7474 51.0781 50.2664 51.0781 49.6784V48.8232C51.6116 48.4705 51.9635 47.8716 51.9635 47.1877C51.9635 46.1082 51.0886 45.2314 50.0113 45.2314H50.0113Z" fill="#FD6038"/>
</svg>
