<svg width="100" height="100" viewBox="0 0 100 100" fill="none" xmlns="http://www.w3.org/2000/svg">
<circle cx="50" cy="50" r="50" fill="#FFEFE5"/>
<path d="M35.6364 54.4238H30.9363C30.1968 54.4238 29.5972 55.0265 29.5972 55.7697C29.5972 56.5129 30.1968 57.1155 30.9363 57.1155H34.2973V60.4933C34.2973 61.2371 34.8969 61.8392 35.6364 61.8392C36.3766 61.8392 36.9756 61.2371 36.9756 60.4933V55.7697C36.9756 55.0265 36.3766 54.4238 35.6364 54.4238Z" fill="#FD6038"/>
<path d="M35.6364 63.8711H30.9363C30.1968 63.8711 29.5972 64.4737 29.5972 65.2169C29.5972 65.9601 30.1968 66.5628 30.9363 66.5628H34.2973V69.9406C34.2973 70.6838 34.8969 71.2864 35.6364 71.2864C36.3766 71.2864 36.9756 70.6838 36.9756 69.9406V65.2169C36.9756 64.4737 36.3766 63.8711 35.6364 63.8711Z" fill="#FD6038"/>
<path d="M40.3374 57.1155H43.6984V60.4933C43.6984 61.2371 44.2981 61.8392 45.0376 61.8392C45.7771 61.8392 46.3767 61.2371 46.3767 60.4933V55.7697C46.3767 55.4128 46.2356 55.0703 45.9845 54.818C45.7334 54.5656 45.3927 54.4238 45.0376 54.4238H40.3374C39.5979 54.4238 38.9983 55.0265 38.9983 55.7697C38.9983 56.5129 39.5979 57.1155 40.3374 57.1155Z" fill="#FD6038"/>
<path d="M35.6364 44.9756H30.9363C30.1968 44.9756 29.5972 45.5782 29.5972 46.3214C29.5972 47.0646 30.1968 47.6673 30.9363 47.6673H34.2973V51.0457C34.2973 51.7889 34.8969 52.3915 35.6364 52.3915C36.3766 52.3915 36.9756 51.7889 36.9756 51.0457V46.3214C36.9756 45.5782 36.3766 44.9756 35.6364 44.9756Z" fill="#FD6038"/>
<path d="M40.3374 47.6673H43.6984V51.0457C43.6984 51.7889 44.2981 52.3915 45.0376 52.3915C45.7771 52.3915 46.3767 51.7889 46.3767 51.0457V46.3214C46.3767 45.9645 46.2356 45.6221 45.9845 45.3697C45.7334 45.1174 45.3927 44.9756 45.0376 44.9756H40.3374C39.5979 44.9756 38.9983 45.5782 38.9983 46.3214C38.9983 47.0646 39.5979 47.6673 40.3374 47.6673Z" fill="#FD6038"/>
<path d="M59.861 54.4238H55.2141C54.4746 54.4238 53.875 55.0265 53.875 55.7697C53.875 56.5129 54.4746 57.1155 55.2141 57.1155H58.5219V60.4933C58.5219 61.2371 59.1215 61.8392 59.861 61.8392C60.6005 61.8392 61.2002 61.2371 61.2002 60.4933V55.7697C61.2002 55.4128 61.0591 55.0703 60.808 54.818C60.5569 54.5656 60.2161 54.4238 59.861 54.4238Z" fill="#FD6038"/>
<path d="M64.6148 57.1155H67.9758V60.4933C67.9758 61.2371 68.5754 61.8392 69.3149 61.8392C70.055 61.8392 70.654 61.2371 70.654 60.4933V55.7697C70.654 55.4128 70.513 55.0703 70.2619 54.818C70.0108 54.5656 69.67 54.4238 69.3149 54.4238H64.6148C63.8753 54.4238 63.2756 55.0265 63.2756 55.7697C63.2756 56.5129 63.8753 57.1155 64.6148 57.1155Z" fill="#FD6038"/>
<path d="M64.6148 66.5628H67.9758V69.4432V69.4426C67.9758 70.1864 68.5754 70.7884 69.3149 70.7884C70.055 70.7884 70.654 70.1864 70.654 69.4426V65.2169C70.654 64.86 70.513 64.5176 70.2619 64.2652C70.0108 64.0129 69.67 63.8711 69.3149 63.8711H64.6148C63.8753 63.8711 63.2756 64.4737 63.2756 65.2169C63.2756 65.9601 63.8753 66.5628 64.6148 66.5628V66.5628Z" fill="#FD6038"/>
<path d="M59.861 44.9756H55.2141C54.4746 44.9756 53.875 45.5782 53.875 46.3214C53.875 47.0646 54.4746 47.6673 55.2141 47.6673H58.5219V51.0457C58.5219 51.7889 59.1215 52.3915 59.861 52.3915C60.6005 52.3915 61.2002 51.7889 61.2002 51.0457V46.3214C61.2002 45.9645 61.0591 45.6221 60.808 45.3697C60.5569 45.1174 60.2161 44.9756 59.861 44.9756Z" fill="#FD6038"/>
<path d="M64.6148 47.6673H67.9758V51.0457C67.9758 51.7889 68.5754 52.3915 69.3149 52.3915C70.055 52.3915 70.654 51.7889 70.654 51.0457V46.3214C70.654 45.9645 70.513 45.6221 70.2619 45.3697C70.0108 45.1174 69.67 44.9756 69.3149 44.9756H64.6148C63.8753 44.9756 63.2756 45.5782 63.2756 46.3214C63.2756 47.0646 63.8753 47.6673 64.6148 47.6673Z" fill="#FD6038"/>
<path d="M81.4757 40.7089L63.2635 26.2952C62.7763 25.9088 62.0894 25.9088 61.6027 26.2952L50.2869 35.218L38.9843 26.2952C38.4952 25.9016 37.8 25.9016 37.3103 26.2952L19.499 40.7227C18.9221 41.1907 18.8324 42.0403 19.2981 42.6201C19.7644 43.1999 20.6097 43.2906 21.1867 42.822L38.1669 29.1083L49.4695 38.0311C49.9532 38.4102 50.6323 38.4102 51.1166 38.0311L62.4324 29.1083L79.8412 42.8358C80.0785 43.0209 80.3708 43.12 80.6715 43.1182C81.0787 43.1164 81.4631 42.9283 81.716 42.6069C81.936 42.3239 82.0346 41.964 81.9892 41.6071C81.9437 41.2508 81.759 40.9276 81.475 40.7089L81.4757 40.7089Z" fill="#FD6038"/>
<path d="M78.4085 72.3089H75.931V42.3636C75.9334 41.949 75.7457 41.5567 75.4223 41.3001L63.2631 31.6774C62.7758 31.2911 62.0889 31.2911 61.6022 31.6774L50.2865 40.6003L38.9838 31.6774C38.4972 31.2911 37.8103 31.2911 37.3236 31.6774L25.1913 41.26H25.1908C24.8625 41.5141 24.6695 41.9064 24.6688 42.3228V72.3081H22.1646C21.4251 72.3081 20.8254 72.9101 20.8254 73.6539C20.8254 74.3971 21.4251 74.9998 22.1646 74.9998H78.4083C79.1478 74.9998 79.7474 74.3971 79.7474 73.6539C79.7474 72.9101 79.1478 72.3081 78.4083 72.3081L78.4085 72.3089ZM48.9475 72.3089H46.3762V65.2162C46.3762 64.8593 46.2351 64.5168 45.984 64.2645C45.7329 64.0122 45.3922 63.8704 45.0371 63.8704H40.3369C39.5974 63.8704 38.9978 64.473 38.9978 65.2162C38.9978 65.9594 39.5974 66.562 40.3369 66.562H43.6979V72.3089H27.3467V43.0096L38.1536 34.4905L48.9467 43.0096L48.9475 72.3089ZM73.2264 72.3089H61.2011V65.2162C61.2011 64.8593 61.0601 64.5168 60.809 64.2645C60.5579 64.0122 60.2171 63.8704 59.862 63.8704H55.2151C54.4756 63.8704 53.876 64.473 53.876 65.2162C53.876 65.9594 54.4756 66.562 55.2151 66.562H58.5229V72.3089H51.6264V43.0096L62.4333 34.4905L73.2534 43.0096L73.2264 72.3089Z" fill="#FD6038"/>
</svg>
