<svg width="100" height="100" viewBox="0 0 100 100" fill="none" xmlns="http://www.w3.org/2000/svg">
<circle cx="50" cy="50" r="50" fill="#FFEFE5"/>
<path d="M78.0919 78.1286H72.555V52.3876L72.7364 52.5746C74.1884 54.0721 76.4579 53.9787 77.91 52.5746C79.3621 51.0771 79.3621 48.7367 77.91 47.2392L73.0994 42.2782V24.8674H74.4609C74.9147 24.8674 75.3685 24.493 75.3685 23.9314C75.3685 23.3699 75.0054 22.9954 74.4609 22.9954L64.658 22.995C64.2042 22.995 63.7504 23.3695 63.7504 23.931C63.7504 24.4925 64.1135 24.867 64.658 24.867H66.0195V34.9764L52.5865 21.1235C51.8602 20.3745 50.9527 20 49.9544 20C48.9561 20 48.0485 20.3745 47.4128 21.1235L21.9986 47.3323C20.5465 48.8298 20.5465 51.1703 21.9986 52.6677C23.4507 54.1652 25.7202 54.0718 27.1723 52.6677L27.3537 52.4807V78.128H21.8168C21.363 78.128 20.9092 78.5025 20.9092 79.064C20.9092 79.532 21.2723 80 21.8168 80H78.1834C78.6372 80 79.091 79.6255 79.091 79.064C79.0003 78.5025 78.6372 78.128 78.0927 78.128L78.0919 78.1286ZM67.8351 24.9608H71.375V40.5932L67.8351 36.8492V24.9608ZM25.9006 51.3572C25.1744 52.1062 23.9948 52.1062 23.1778 51.3572C22.4515 50.6082 22.4515 49.2977 23.1778 48.5492L48.592 22.3404C48.9551 21.9659 49.409 21.7789 49.9535 21.7789C50.498 21.7789 50.9518 21.9659 51.315 22.3404L66.2916 37.879C68.1974 39.8445 71.8284 43.589 76.639 48.55C77.3653 49.299 77.3653 50.5155 76.639 51.358C75.9127 52.1069 74.642 52.1069 73.9162 51.358L50.589 27.2077C50.2259 26.8333 49.6814 26.8333 49.3183 27.2077L25.9006 51.3572ZM29.0773 78.1286V50.6081L49.9536 29.0791L70.8299 50.6081V78.1275L29.0773 78.1286Z" fill="#FD6038"/>
<path d="M62.6616 60.1565C62.7523 59.3141 62.7523 58.4716 62.6616 57.6291L64.4769 56.1316C64.7493 55.8506 64.9307 55.4766 64.7493 55.1021L63.0248 50.7962C62.8434 50.4217 62.4803 50.2347 62.1171 50.2347L59.8481 50.5157C59.3036 49.8606 58.7586 49.2987 58.1235 48.7372L58.396 46.3972C58.396 46.0227 58.2146 45.6482 57.8515 45.4612L53.6761 43.6827C53.313 43.4957 52.8592 43.6827 52.6778 43.9637L51.3163 45.8357C50.4994 45.7422 49.6825 45.7422 48.8655 45.8357L47.4134 43.9637C47.141 43.6827 46.7783 43.4957 46.4151 43.6827L42.2398 45.4612C41.8767 45.6482 41.6953 46.0227 41.6953 46.3972L41.9678 48.7372C41.3326 49.2987 40.7877 49.8607 40.2432 50.5157L37.9741 50.2347C37.611 50.2347 37.2479 50.4217 37.0665 50.7962L35.342 55.1021C35.1606 55.4766 35.342 55.9446 35.6144 56.1316L37.4297 57.6291C37.2467 58.659 37.2467 59.5016 37.2467 60.2501L35.4314 61.7476C35.1589 62.0286 34.9776 62.4026 35.1589 62.7771L36.8835 67.083C37.0648 67.4575 37.428 67.6445 37.7911 67.6445L40.0602 67.3635C40.6047 68.0186 41.1496 68.5805 41.7847 69.142L41.6034 71.4829C41.6034 71.8574 41.7847 72.2319 42.1479 72.4189L46.3232 74.1974C46.4139 74.1974 46.5046 74.2909 46.6864 74.2909C46.9588 74.2909 47.2308 74.1974 47.4126 73.9164L48.8647 72.0444C49.6817 72.1379 50.4985 72.1379 51.3155 72.0444L52.7676 73.9164C53.0401 74.1974 53.4028 74.3844 53.7659 74.1974L58.1227 72.3254C58.4858 72.1383 58.7579 71.7639 58.6672 71.2959C58.5765 70.8279 58.3947 69.7984 58.2134 69.0494C58.8485 68.4879 59.3934 67.9259 59.9379 67.2709L62.207 67.5519C62.5701 67.6454 62.9333 67.3649 63.1146 66.9904L64.8392 62.6845C65.0205 62.31 64.8392 61.842 64.5667 61.655L62.6616 60.1565ZM61.6629 65.6794L59.5751 65.3984C59.3027 65.3984 58.94 65.4919 58.7582 65.7729C58.2137 66.6154 57.4874 67.2704 56.6705 67.9259C56.398 68.113 56.3073 68.3939 56.3073 68.7684C56.398 69.2364 56.5798 70.1725 56.6705 70.9214L53.5844 72.2315L52.3141 70.5469C52.1327 70.2659 51.8603 70.1724 51.4971 70.1724C50.4988 70.3594 49.5001 70.3594 48.5018 70.1724C48.2294 70.1724 47.8667 70.2659 47.6849 70.5469L46.4141 72.2318L43.4188 71.0149L43.6913 68.8619C43.6913 68.5809 43.6006 68.2068 43.3281 68.0194C42.5112 67.3643 41.7849 66.7089 41.2404 65.8664C41.059 65.5854 40.7866 65.4919 40.4234 65.4919L38.3357 65.7728L37.0649 62.7774L38.6988 61.3734C38.9712 61.1864 39.0619 60.8119 39.0619 60.5309C38.9712 59.5949 38.8806 58.5654 39.0619 57.4419C39.0619 57.1609 38.9712 56.7869 38.6988 56.5994L37.0649 55.2889L38.245 52.2L40.3327 52.4809C40.6052 52.4809 40.9679 52.3874 41.1497 52.1065C41.7848 51.264 42.4204 50.515 43.2374 49.9535C43.5099 49.7664 43.6005 49.4855 43.6005 49.111L43.3281 46.958L46.2327 45.6475L47.5942 47.3324C47.7755 47.6134 48.048 47.7069 48.4111 47.7069C49.4094 47.6133 50.4081 47.6133 51.4064 47.7069C51.6789 47.7069 52.0416 47.6133 52.2234 47.3324L53.4941 45.6475L56.4895 46.8644L56.217 49.0174C56.217 49.2984 56.3077 49.6724 56.5801 49.8599C57.3971 50.5149 58.1234 51.1704 58.6679 52.0129C58.8492 52.2939 59.1217 52.3874 59.4848 52.3874L61.5725 52.1064L62.8433 55.1018L61.2095 56.5059C60.937 56.6929 60.8463 57.0674 60.8463 57.3484C60.937 58.3779 61.0277 59.3138 60.8463 60.3438C60.8463 60.6248 60.937 60.9988 61.2095 61.1863L62.8433 62.4968L61.6629 65.6794Z" fill="#FD6038"/>
<path d="M49.9541 53.5107C47.0494 53.5107 44.5986 55.9446 44.5986 58.9397C44.5986 61.9351 46.9587 64.3687 49.9541 64.3687C52.8587 64.3687 55.2184 61.9348 55.2184 58.9397C55.3095 55.9447 52.8587 53.5107 49.9541 53.5107ZM49.9541 62.5907C47.957 62.5907 46.4142 60.9057 46.4142 58.9402C46.4142 56.8807 48.0481 55.2897 49.9541 55.2897C51.9511 55.2897 53.4939 56.9746 53.4939 58.9402C53.4939 60.9992 51.9511 62.5907 49.9541 62.5907Z" fill="#FD6038"/>
</svg>
